<svg width="630" height="630" viewBox="0 0 630 630" fill="none" xmlns="http://www.w3.org/2000/svg">
<circle cx="315" cy="315" r="315" fill="white"/>
<path d="M384.585 358.785C385.161 358.541 385.823 358.582 386.365 358.893C402.439 368.102 416.262 376.092 431.595 385.047C454.818 398.611 469.016 423.539 469.016 450.433V481.514C469.016 482.298 468.145 482.771 467.479 482.357C408.155 445.561 365.766 418.761 318.431 389.974C317.748 389.559 317.8 388.548 318.526 388.212C338.789 378.808 360.658 368.932 384.585 358.785ZM144 229.621C144 228.877 144.789 228.396 145.454 228.73C195.889 254.055 237.346 275.097 277.227 296.546C277.955 296.937 277.919 297.991 277.165 298.329C269.6 301.718 260.821 305.354 253.878 308.655C239.391 315.543 225.648 322.413 212.97 329.297C212.676 329.457 212.322 329.458 212.025 329.302C190.468 317.946 169.875 307.756 144.578 295.9C144.227 295.735 144 295.381 144 294.993V229.621Z" fill="url(#paint0_linear_365_1644)"/>
<path d="M420.566 318.312C265.885 381.833 167.777 428.004 149.5 483.5V421.373C149.5 410.244 151.398 398.886 158.534 390.346C199.304 341.561 335.436 294.33 463 234.5V255.219C463 282.896 446.168 307.799 420.566 318.312Z" fill="url(#paint1_linear_365_1644)"/>
<path d="M408.926 234.883L307.833 281.615C307.304 281.859 306.695 281.861 306.165 281.619L203.641 234.888C202.057 234.166 202.088 231.905 203.691 231.226L306.215 187.832C306.716 187.62 307.283 187.621 307.783 187.836L408.876 231.23C410.467 231.913 410.498 234.157 408.926 234.883Z" fill="#092B4B"/>
<path d="M503.468 189.4L443.821 217.513C443.299 217.759 442.697 217.768 442.168 217.537L307.802 158.85C307.291 158.627 306.709 158.627 306.198 158.851L172.326 217.538C171.801 217.768 171.202 217.762 170.681 217.52L110.08 189.394C108.509 188.664 108.545 186.417 110.139 185.739L306.216 102.333C306.717 102.12 307.283 102.121 307.784 102.334L503.4 185.752C504.988 186.429 505.03 188.664 503.468 189.4Z" fill="#092B4B"/>
<path d="M507.5 187.5L497 192L495.5 249V259V278.5C492.092 278.5 489.238 281.079 488.893 284.469L480.221 369.828C480.089 371.123 480.81 372.361 482.011 372.863C496.596 378.973 506.077 379.447 522.015 375.187C523.444 374.805 524.365 373.416 524.181 371.948L513.182 283.957C512.792 280.84 510.142 278.5 507 278.5V259V249L507.5 187.5Z" fill="#092B4B"/>
<defs>
<linearGradient id="paint0_linear_365_1644" x1="28.2012" y1="216.911" x2="442.799" y2="468.21" gradientUnits="userSpaceOnUse">
<stop stop-color="#40B9EB"/>
<stop offset="1" stop-color="#0A4C6F"/>
</linearGradient>
<linearGradient id="paint1_linear_365_1644" x1="632.5" y1="160.5" x2="115.5" y2="457" gradientUnits="userSpaceOnUse">
<stop stop-color="#0BAAEC"/>
<stop offset="1" stop-color="#0A4C6F"/>
</linearGradient>
</defs>
</svg>
