<svg width="1318" height="382" viewBox="0 0 1318 382" fill="none" xmlns="http://www.w3.org/2000/svg">
<path d="M1177.59 256.785C1178.16 256.541 1178.82 256.582 1179.36 256.893C1195.44 266.102 1209.26 274.092 1224.59 283.047C1247.82 296.611 1262.02 321.539 1262.02 348.433V379.514C1262.02 380.298 1261.14 380.771 1260.48 380.357C1201.16 343.561 1158.77 316.761 1111.43 287.974C1110.75 287.559 1110.8 286.548 1111.53 286.212C1131.79 276.808 1153.66 266.932 1177.59 256.785ZM937 127.621C937 126.877 937.789 126.396 938.454 126.73C988.889 152.055 1030.35 173.097 1070.23 194.546C1070.96 194.937 1070.92 195.991 1070.16 196.329C1062.6 199.718 1053.82 203.354 1046.88 206.655C1032.39 213.543 1018.65 220.413 1005.97 227.297C1005.68 227.457 1005.32 227.458 1005.03 227.302C983.468 215.946 962.875 205.756 937.578 193.9C937.227 193.735 937 193.381 937 192.993V127.621Z" fill="url(#paint0_linear_292_1648)"/>
<path d="M1213.57 216.312C1058.89 279.833 960.777 326.004 942.5 381.5V319.373C942.5 308.244 944.398 296.886 951.534 288.346C992.304 239.561 1128.44 192.33 1256 132.5V153.219C1256 180.896 1239.17 205.799 1213.57 216.312Z" fill="url(#paint1_linear_292_1648)"/>
<path d="M1201.93 132.883L1100.83 179.615C1100.3 179.859 1099.69 179.861 1099.16 179.619L996.641 132.888C995.057 132.166 995.088 129.905 996.691 129.226L1099.21 85.8323C1099.72 85.62 1100.28 85.6214 1100.78 85.8363L1201.88 129.23C1203.47 129.913 1203.5 132.157 1201.93 132.883Z" fill="#092B4B"/>
<path d="M1296.47 87.4004L1236.82 115.513C1236.3 115.759 1235.7 115.768 1235.17 115.537L1100.8 56.8503C1100.29 56.627 1099.71 56.6274 1099.2 56.8514L965.326 115.538C964.801 115.768 964.202 115.762 963.681 115.52L903.08 87.3938C901.509 86.6643 901.545 84.4175 903.139 83.7392L1099.22 0.333424C1099.72 0.120399 1100.28 0.120653 1100.78 0.334128L1296.4 83.7515C1297.99 84.4287 1298.03 86.6644 1296.47 87.4004Z" fill="#092B4B"/>
<path d="M1300.5 85.5L1290 90L1288.5 147V157V176.5C1285.09 176.5 1282.24 179.079 1281.89 182.469L1273.22 267.828C1273.09 269.123 1273.81 270.361 1275.01 270.863C1289.6 276.973 1299.08 277.447 1315.01 273.187C1316.44 272.805 1317.36 271.416 1317.18 269.948L1306.18 181.957C1305.79 178.84 1303.14 176.5 1300 176.5V157V147L1300.5 85.5Z" fill="#092B4B"/>
<path d="M12.642 320V174.545H43.3949V238.679H45.3125L97.6562 174.545H134.517L80.5398 239.673L135.156 320H98.3665L58.5227 260.199L43.3949 278.665V320H12.642ZM171.604 320H138.649L188.862 174.545H228.493L278.635 320H245.68L209.246 207.784H208.109L171.604 320ZM169.544 262.827H247.385V286.832H169.544V262.827ZM292.142 174.545H330.068L370.125 272.273H371.83L411.886 174.545H449.812V320H419.983V225.327H418.776L381.134 319.29H360.821L323.179 224.972H321.972V320H292.142V174.545ZM485.15 320V174.545H542.536C553.568 174.545 562.967 176.652 570.732 180.866C578.497 185.033 584.416 190.833 588.488 198.267C592.607 205.653 594.667 214.176 594.667 223.835C594.667 233.494 592.584 242.017 588.417 249.403C584.25 256.79 578.213 262.543 570.306 266.662C562.446 270.781 552.929 272.841 541.755 272.841H505.178V248.196H536.783C542.702 248.196 547.579 247.178 551.414 245.142C555.297 243.059 558.185 240.194 560.079 236.548C562.02 232.855 562.991 228.617 562.991 223.835C562.991 219.006 562.02 214.792 560.079 211.193C558.185 207.547 555.297 204.73 551.414 202.741C547.531 200.705 542.607 199.688 536.641 199.688H515.903V320H485.15ZM714.486 174.545H745.239V269.006C745.239 279.612 742.705 288.892 737.639 296.847C732.62 304.801 725.589 311.004 716.545 315.455C707.502 319.858 696.967 322.06 684.94 322.06C672.866 322.06 662.308 319.858 653.264 315.455C644.221 311.004 637.189 304.801 632.17 296.847C627.152 288.892 624.642 279.612 624.642 269.006V174.545H655.395V266.378C655.395 271.918 656.602 276.842 659.017 281.151C661.479 285.459 664.936 288.845 669.386 291.307C673.837 293.769 679.022 295 684.94 295C690.906 295 696.091 293.769 700.494 291.307C704.945 288.845 708.378 285.459 710.793 281.151C713.255 276.842 714.486 271.918 714.486 266.378V174.545ZM859.447 216.378C858.879 210.649 856.44 206.198 852.131 203.026C847.823 199.853 841.975 198.267 834.589 198.267C829.57 198.267 825.332 198.977 821.876 200.398C818.419 201.771 815.768 203.688 813.921 206.151C812.122 208.613 811.222 211.406 811.222 214.531C811.128 217.135 811.672 219.408 812.856 221.349C814.087 223.291 815.768 224.972 817.898 226.392C820.029 227.765 822.491 228.973 825.285 230.014C828.078 231.009 831.061 231.861 834.234 232.571L847.302 235.696C853.647 237.116 859.47 239.01 864.773 241.378C870.076 243.745 874.669 246.657 878.552 250.114C882.434 253.57 885.441 257.642 887.572 262.33C889.75 267.017 890.862 272.391 890.91 278.452C890.862 287.353 888.59 295.071 884.092 301.605C879.641 308.092 873.201 313.134 864.773 316.733C856.393 320.284 846.284 322.06 834.447 322.06C822.704 322.06 812.477 320.26 803.765 316.662C795.1 313.063 788.329 307.737 783.452 300.682C778.623 293.58 776.09 284.796 775.853 274.332H805.612C805.943 279.209 807.34 283.281 809.802 286.548C812.311 289.768 815.649 292.206 819.816 293.864C824.03 295.473 828.789 296.278 834.092 296.278C839.3 296.278 843.822 295.521 847.657 294.006C851.54 292.491 854.546 290.384 856.677 287.685C858.808 284.986 859.873 281.884 859.873 278.381C859.873 275.114 858.902 272.367 856.961 270.142C855.067 267.917 852.273 266.023 848.58 264.46C844.934 262.898 840.46 261.477 835.157 260.199L819.319 256.222C807.056 253.239 797.373 248.575 790.271 242.23C783.168 235.885 779.641 227.339 779.688 216.591C779.641 207.784 781.985 200.09 786.719 193.509C791.502 186.927 798.059 181.79 806.393 178.097C814.726 174.403 824.196 172.557 834.802 172.557C845.597 172.557 855.02 174.403 863.069 178.097C871.165 181.79 877.463 186.927 881.961 193.509C886.459 200.09 888.779 207.713 888.921 216.378H859.447Z" fill="#1A3965"/>
<defs>
<linearGradient id="paint0_linear_292_1648" x1="821.201" y1="114.911" x2="1235.8" y2="366.21" gradientUnits="userSpaceOnUse">
<stop stop-color="#40B9EB"/>
<stop offset="1" stop-color="#0A4C6F"/>
</linearGradient>
<linearGradient id="paint1_linear_292_1648" x1="1425.5" y1="58.5" x2="908.5" y2="355" gradientUnits="userSpaceOnUse">
<stop stop-color="#0BAAEC"/>
<stop offset="1" stop-color="#0A4C6F"/>
</linearGradient>
</defs>
</svg>
