<svg width="1417" height="391" viewBox="0 0 1417 391" fill="none" xmlns="http://www.w3.org/2000/svg">
<path d="M1218.48 236.403C1219.06 236.159 1219.72 236.2 1220.26 236.51C1230.26 242.237 1239.16 247.375 1248.42 252.756C1271.66 266.278 1285.85 291.22 1285.85 318.114V333.612C1285.85 334.395 1284.98 334.869 1284.31 334.456C1237.41 305.362 1203.81 284.119 1166.36 261.34C1165.67 260.924 1165.73 259.914 1166.45 259.577C1182.43 252.168 1199.65 244.391 1218.48 236.403ZM1027.24 133.879C1027.24 133.135 1028.03 132.654 1028.69 132.988C1068.53 152.996 1101.34 169.648 1132.88 186.605C1133.61 186.996 1133.57 188.05 1132.82 188.387C1126.89 191.036 1120.08 193.863 1114.67 196.435C1103.18 201.899 1092.27 207.347 1082.21 212.808C1081.92 212.967 1081.56 212.969 1081.27 212.813C1064.18 203.815 1047.85 195.733 1027.81 186.341C1027.46 186.176 1027.24 185.822 1027.24 185.434V133.879Z" fill="url(#paint0_linear_294_17)"/>
<path d="M1238.66 207.678C1120.57 256.402 1045.81 292.444 1031.61 335.559V289.571C1031.61 278.442 1033.52 267.042 1041.07 258.861C1076.03 220.95 1181.81 183.983 1281.06 137.43V144.563C1281.06 172.24 1264.24 197.121 1238.66 207.678Z" fill="url(#paint1_linear_294_17)"/>
<path d="M1237.21 138.12L1157.77 174.841C1157.24 175.085 1156.63 175.087 1156.1 174.845L1075.54 138.124C1073.96 137.402 1073.99 135.141 1075.59 134.463L1156.15 100.365C1156.65 100.152 1157.22 100.154 1157.72 100.369L1237.16 134.466C1238.75 135.149 1238.78 137.393 1237.21 138.12Z" fill="#092B4B"/>
<path d="M1312.44 101.933L1265.97 123.835C1265.45 124.081 1264.85 124.089 1264.32 123.858L1157.74 77.3073C1157.23 77.084 1156.64 77.0844 1156.13 77.3084L1049.94 123.859C1049.42 124.09 1048.82 124.083 1048.3 123.842L1001.08 101.926C999.509 101.197 999.545 98.9497 1001.14 98.2715L1156.15 32.3334C1156.65 32.1204 1157.22 32.1207 1157.72 32.3341L1312.37 98.2838C1313.96 98.9609 1314 101.197 1312.44 101.933Z" fill="#092B4B"/>
<path d="M1316.47 100.032L1308.12 103.613L1306.92 148.968V156.925V172.441C1304.21 172.441 1301.94 174.493 1301.67 177.191L1294.81 244.667C1294.68 245.962 1295.4 247.2 1296.6 247.697C1307.82 252.332 1315.29 252.714 1327.52 249.508C1328.95 249.133 1329.86 247.744 1329.68 246.276L1320.99 176.783C1320.68 174.302 1318.58 172.441 1316.08 172.441V156.925V148.968L1316.47 100.032Z" fill="#092B4B"/>
<path d="M181.8 279L134.6 217V279H100.4V138.6H134.6V200.2L181.4 138.6H221.6L167.2 207.4L223.6 279H181.8ZM337.253 254.2H284.853L276.453 279H240.653L291.453 138.6H331.053L381.853 279H345.653L337.253 254.2ZM328.453 227.8L311.053 176.4L293.853 227.8H328.453ZM566.314 138.6V279H532.114V194.8L500.714 279H473.114L441.514 194.6V279H407.314V138.6H447.714L487.114 235.8L526.114 138.6H566.314ZM707.908 183.8C707.908 191.933 706.041 199.4 702.308 206.2C698.574 212.867 692.841 218.267 685.108 222.4C677.374 226.533 667.774 228.6 656.308 228.6H635.108V279H600.908V138.6H656.308C667.508 138.6 676.974 140.533 684.708 144.4C692.441 148.267 698.241 153.6 702.108 160.4C705.974 167.2 707.908 175 707.908 183.8ZM653.708 201.4C660.241 201.4 665.108 199.867 668.308 196.8C671.508 193.733 673.108 189.4 673.108 183.8C673.108 178.2 671.508 173.867 668.308 170.8C665.108 167.733 660.241 166.2 653.708 166.2H635.108V201.4H653.708ZM769.313 138.6V222.6C769.313 231 771.379 237.467 775.513 242C779.646 246.533 785.713 248.8 793.713 248.8C801.713 248.8 807.846 246.533 812.113 242C816.379 237.467 818.513 231 818.513 222.6V138.6H852.713V222.4C852.713 234.933 850.046 245.533 844.713 254.2C839.379 262.867 832.179 269.4 823.113 273.8C814.179 278.2 804.179 280.4 793.113 280.4C782.046 280.4 772.113 278.267 763.313 274C754.646 269.6 747.779 263.067 742.713 254.4C737.646 245.6 735.113 234.933 735.113 222.4V138.6H769.313ZM937.528 280.4C927.261 280.4 918.061 278.733 909.928 275.4C901.795 272.067 895.261 267.133 890.328 260.6C885.528 254.067 882.995 246.2 882.728 237H919.128C919.661 242.2 921.461 246.2 924.528 249C927.595 251.667 931.595 253 936.528 253C941.595 253 945.595 251.867 948.528 249.6C951.461 247.2 952.928 243.933 952.928 239.8C952.928 236.333 951.728 233.467 949.328 231.2C947.061 228.933 944.195 227.067 940.728 225.6C937.395 224.133 932.595 222.467 926.328 220.6C917.261 217.8 909.861 215 904.128 212.2C898.395 209.4 893.461 205.267 889.328 199.8C885.195 194.333 883.128 187.2 883.128 178.4C883.128 165.333 887.861 155.133 897.328 147.8C906.795 140.333 919.128 136.6 934.328 136.6C949.795 136.6 962.261 140.333 971.728 147.8C981.195 155.133 986.261 165.4 986.928 178.6H949.928C949.661 174.067 947.995 170.533 944.928 168C941.861 165.333 937.928 164 933.128 164C928.995 164 925.661 165.133 923.128 167.4C920.595 169.533 919.328 172.667 919.328 176.8C919.328 181.333 921.461 184.867 925.728 187.4C929.995 189.933 936.661 192.667 945.728 195.6C954.795 198.667 962.128 201.6 967.728 204.4C973.461 207.2 978.395 211.267 982.528 216.6C986.661 221.933 988.728 228.8 988.728 237.2C988.728 245.2 986.661 252.467 982.528 259C978.528 265.533 972.661 270.733 964.928 274.6C957.195 278.467 948.061 280.4 937.528 280.4Z" fill="#1A3965"/>
<defs>
<linearGradient id="paint0_linear_294_17" x1="935.095" y1="123.435" x2="1264.99" y2="323.393" gradientUnits="userSpaceOnUse">
<stop stop-color="#40B9EB"/>
<stop offset="1" stop-color="#0A4C6F"/>
</linearGradient>
<linearGradient id="paint1_linear_294_17" x1="1415.94" y1="78.5483" x2="1004.56" y2="314.473" gradientUnits="userSpaceOnUse">
<stop stop-color="#0BAAEC"/>
<stop offset="1" stop-color="#0A4C6F"/>
</linearGradient>
</defs>
</svg>
