<svg width="1369" height="310" viewBox="0 0 1369 310" fill="none" xmlns="http://www.w3.org/2000/svg">
<path d="M226.202 208.731C226.777 208.487 227.439 208.528 227.981 208.839C238.482 214.855 247.806 220.235 257.547 225.903C280.793 239.43 294.98 264.37 294.98 291.264V308.049C294.98 308.833 294.11 309.307 293.444 308.893C245.514 279.163 211.184 257.461 172.917 234.185C172.234 233.77 172.288 232.759 173.013 232.423C189.341 224.848 206.952 216.898 226.202 208.731ZM30.8779 104.006C30.8779 103.262 31.6668 102.781 32.3317 103.115C73.0514 123.562 106.571 140.577 138.803 157.905C139.531 158.297 139.495 159.35 138.74 159.688C132.673 162.398 125.699 165.292 120.163 167.924C108.424 173.505 97.2876 179.071 87.0099 184.649C86.7159 184.809 86.3614 184.811 86.0653 184.655C68.611 175.462 51.9274 167.206 31.456 157.61C31.1047 157.445 30.8779 157.091 30.8779 156.703V104.006Z" fill="url(#paint0_linear_409_1617)"/>
<path d="M247.686 179.033C126.572 228.98 49.8845 265.86 35.3477 310V262.678C35.3477 251.55 37.2529 240.153 44.7601 231.937C80.222 193.129 188.501 155.315 290.092 107.667V115.923C290.092 143.6 273.272 168.481 247.686 179.033Z" fill="url(#paint1_linear_409_1617)"/>
<path d="M245.389 108.331L164.162 145.88C163.633 146.124 163.024 146.126 162.494 145.884L80.1178 108.336C78.5336 107.614 78.5645 105.353 80.1677 104.674L162.544 69.808C163.045 69.5958 163.612 69.5972 164.112 69.812L245.339 104.678C246.929 105.361 246.96 107.605 245.389 108.331Z" fill="#092B4B"/>
<path d="M322.22 71.3761L274.661 93.7914C274.139 94.0374 273.537 94.046 273.008 93.8151L164.131 46.2612C163.62 46.0379 163.038 46.0382 162.527 46.2622L54.0506 93.8161C53.5251 94.0465 52.926 94.0401 52.4056 93.7986L4.08026 71.3695C2.50856 70.64 2.54492 68.3932 4.13939 67.715L162.545 0.333423C163.046 0.120398 163.612 0.120653 164.113 0.334128L322.151 67.7273C323.739 68.4044 323.781 70.6401 322.22 71.3761Z" fill="#092B4B"/>
<path d="M326.251 69.4758L317.719 73.1324L316.5 119.45V127.575V143.421C313.731 143.421 311.412 145.517 311.132 148.271L304.126 217.225C303.994 218.52 304.715 219.759 305.917 220.256C317.415 225.013 325.046 225.402 337.582 222.11C339.013 221.734 339.93 220.345 339.746 218.877L330.869 147.855C330.552 145.322 328.398 143.421 325.845 143.421V127.575V119.45L326.251 69.4758Z" fill="#092B4B"/>
<path d="M428.4 229V80H455.6V157.6L448.2 155L511.6 80H545.8L486.4 150.4L488 131.2L547.6 229H515.6L475.6 163.4L455.6 187.2V229H428.4ZM588.989 231.4C581.389 231.4 574.789 230.133 569.189 227.6C563.589 225.067 559.256 221.467 556.189 216.8C553.122 212 551.589 206.467 551.589 200.2C551.589 194.2 552.922 188.867 555.589 184.2C558.256 179.4 562.389 175.4 567.989 172.2C573.589 169 580.656 166.733 589.189 165.4L624.789 159.6V179.6L594.189 184.8C588.989 185.733 585.122 187.4 582.589 189.8C580.056 192.2 578.789 195.333 578.789 199.2C578.789 202.933 580.189 205.933 582.989 208.2C585.922 210.333 589.522 211.4 593.789 211.4C599.256 211.4 604.056 210.267 608.189 208C612.456 205.6 615.722 202.333 617.989 198.2C620.389 194.067 621.589 189.533 621.589 184.6V156.6C621.589 151.933 619.722 148.067 615.989 145C612.389 141.8 607.589 140.2 601.589 140.2C595.989 140.2 590.989 141.733 586.589 144.8C582.322 147.733 579.189 151.667 577.189 156.6L555.789 146.2C557.922 140.467 561.256 135.533 565.789 131.4C570.456 127.133 575.922 123.8 582.189 121.4C588.456 119 595.256 117.8 602.589 117.8C611.522 117.8 619.389 119.467 626.189 122.8C632.989 126 638.256 130.533 641.989 136.4C645.856 142.133 647.789 148.867 647.789 156.6V229H622.989V210.4L628.589 210C625.789 214.667 622.456 218.6 618.589 221.8C614.722 224.867 610.322 227.267 605.389 229C600.456 230.6 594.989 231.4 588.989 231.4ZM668.005 229V120.2H692.605V145.4L689.805 141.2C691.805 133.333 695.805 127.467 701.805 123.6C707.805 119.733 714.871 117.8 723.005 117.8C731.938 117.8 739.805 120.133 746.605 124.8C753.405 129.467 757.805 135.6 759.805 143.2L752.405 143.8C755.738 135.133 760.738 128.667 767.405 124.4C774.071 120 781.738 117.8 790.405 117.8C798.138 117.8 805.005 119.533 811.005 123C817.138 126.467 821.938 131.333 825.405 137.6C828.871 143.733 830.605 150.867 830.605 159V229H804.405V165.2C804.405 160.4 803.538 156.267 801.805 152.8C800.071 149.333 797.671 146.667 794.605 144.8C791.538 142.8 787.805 141.8 783.405 141.8C779.271 141.8 775.605 142.8 772.405 144.8C769.205 146.667 766.738 149.333 765.005 152.8C763.271 156.267 762.405 160.4 762.405 165.2V229H736.205V165.2C736.205 160.4 735.338 156.267 733.605 152.8C731.871 149.333 729.405 146.667 726.205 144.8C723.138 142.8 719.471 141.8 715.205 141.8C711.071 141.8 707.405 142.8 704.205 144.8C701.005 146.667 698.538 149.333 696.805 152.8C695.071 156.267 694.205 160.4 694.205 165.2V229H668.005ZM862.77 269V120.2H887.37V141.8L884.97 136.4C888.704 130.533 893.77 126 900.17 122.8C906.57 119.467 913.97 117.8 922.37 117.8C932.637 117.8 941.904 120.333 950.17 125.4C958.437 130.467 964.97 137.267 969.77 145.8C974.704 154.333 977.17 163.933 977.17 174.6C977.17 185.133 974.77 194.733 969.97 203.4C965.17 212.067 958.637 218.933 950.37 224C942.104 228.933 932.704 231.4 922.17 231.4C914.304 231.4 907.037 229.867 900.37 226.8C893.837 223.6 888.637 219.067 884.77 213.2L888.97 208V269H862.77ZM919.17 207.4C925.17 207.4 930.504 206 935.17 203.2C939.837 200.4 943.437 196.533 945.97 191.6C948.637 186.667 949.97 181 949.97 174.6C949.97 168.2 948.637 162.6 945.97 157.8C943.437 152.867 939.837 149 935.17 146.2C930.504 143.267 925.17 141.8 919.17 141.8C913.437 141.8 908.237 143.2 903.57 146C899.037 148.8 895.437 152.733 892.77 157.8C890.237 162.733 888.97 168.333 888.97 174.6C888.97 181 890.237 186.667 892.77 191.6C895.437 196.533 899.037 200.4 903.57 203.2C908.237 206 913.437 207.4 919.17 207.4ZM1045.95 231.4C1037.55 231.4 1030.21 229.533 1023.95 225.8C1017.81 222.067 1013.08 216.867 1009.75 210.2C1006.55 203.533 1004.95 195.733 1004.95 186.8V120.2H1031.15V184.6C1031.15 189.133 1032.01 193.133 1033.75 196.6C1035.61 199.933 1038.21 202.6 1041.55 204.6C1045.01 206.467 1048.88 207.4 1053.15 207.4C1057.41 207.4 1061.21 206.467 1064.55 204.6C1067.88 202.6 1070.48 199.867 1072.35 196.4C1074.21 192.933 1075.15 188.8 1075.15 184V120.2H1101.35V229H1076.55V207.6L1078.75 211.4C1076.21 218.067 1072.01 223.067 1066.15 226.4C1060.41 229.733 1053.68 231.4 1045.95 231.4ZM1177.1 231.4C1165.5 231.4 1155.37 228.667 1146.7 223.2C1138.17 217.6 1132.3 210.067 1129.1 200.6L1148.7 191.2C1151.5 197.333 1155.37 202.133 1160.3 205.6C1165.37 209.067 1170.97 210.8 1177.1 210.8C1181.9 210.8 1185.7 209.733 1188.5 207.6C1191.3 205.467 1192.7 202.667 1192.7 199.2C1192.7 197.067 1192.1 195.333 1190.9 194C1189.83 192.533 1188.3 191.333 1186.3 190.4C1184.43 189.333 1182.37 188.467 1180.1 187.8L1162.3 182.8C1153.1 180.133 1146.1 176.067 1141.3 170.6C1136.63 165.133 1134.3 158.667 1134.3 151.2C1134.3 144.533 1135.97 138.733 1139.3 133.8C1142.77 128.733 1147.5 124.8 1153.5 122C1159.63 119.2 1166.63 117.8 1174.5 117.8C1184.77 117.8 1193.83 120.267 1201.7 125.2C1209.57 130.133 1215.17 137.067 1218.5 146L1198.5 155.4C1196.63 150.467 1193.5 146.533 1189.1 143.6C1184.7 140.667 1179.77 139.2 1174.3 139.2C1169.9 139.2 1166.43 140.2 1163.9 142.2C1161.37 144.2 1160.1 146.8 1160.1 150C1160.1 152 1160.63 153.733 1161.7 155.2C1162.77 156.667 1164.23 157.867 1166.1 158.8C1168.1 159.733 1170.37 160.6 1172.9 161.4L1190.3 166.6C1199.23 169.267 1206.1 173.267 1210.9 178.6C1215.83 183.933 1218.3 190.467 1218.3 198.2C1218.3 204.733 1216.57 210.533 1213.1 215.6C1209.63 220.533 1204.83 224.4 1198.7 227.2C1192.57 230 1185.37 231.4 1177.1 231.4ZM1238.43 229L1287.23 154L1238.83 80H1270.03L1309.63 140.6H1295.23L1334.63 80H1365.83L1317.63 154L1366.23 229H1335.03L1295.23 167.6H1309.63L1269.63 229H1238.43Z" fill="#082F49"/>
<defs>
<linearGradient id="paint0_linear_409_1617" x1="-63.2181" y1="93.3746" x2="273.676" y2="297.575" gradientUnits="userSpaceOnUse">
<stop stop-color="#40B9EB"/>
<stop offset="1" stop-color="#0A4C6F"/>
</linearGradient>
<linearGradient id="paint1_linear_409_1617" x1="427.825" y1="47.5359" x2="7.71989" y2="288.466" gradientUnits="userSpaceOnUse">
<stop stop-color="#0BAAEC"/>
<stop offset="1" stop-color="#0A4C6F"/>
</linearGradient>
</defs>
</svg>
