<svg width="419" height="382" viewBox="0 0 419 382" fill="none" xmlns="http://www.w3.org/2000/svg">
<path d="M278.585 256.785C279.161 256.541 279.823 256.582 280.365 256.893C296.439 266.102 310.262 274.092 325.595 283.047C348.818 296.611 363.016 321.539 363.016 348.433V379.514C363.016 380.298 362.145 380.771 361.479 380.357C302.155 343.561 259.766 316.761 212.431 287.974C211.748 287.559 211.8 286.548 212.526 286.212C232.789 276.808 254.658 266.932 278.585 256.785ZM38 127.621C38 126.877 38.7894 126.396 39.4544 126.73C89.8894 152.055 131.346 173.097 171.227 194.546C171.955 194.937 171.919 195.991 171.165 196.329C163.6 199.718 154.821 203.354 147.878 206.655C133.391 213.543 119.648 220.413 106.97 227.297C106.676 227.457 106.322 227.458 106.025 227.302C84.4679 215.946 63.8749 205.756 38.5783 193.9C38.2269 193.735 38 193.381 38 192.993V127.621Z" fill="white" fill-opacity="0.4"/>
<path d="M314.566 216.312C159.885 279.833 61.7768 326.004 43.5 381.5V319.373C43.5 308.244 45.3976 296.886 52.5341 288.346C93.3038 239.561 229.436 192.33 357 132.5V153.219C357 180.896 340.168 205.799 314.566 216.312Z" fill="white" fill-opacity="0.7"/>
<path d="M302.926 132.883L201.833 179.615C201.304 179.859 200.695 179.861 200.165 179.619L97.6413 132.888C96.0572 132.166 96.0881 129.905 97.6913 129.226L200.215 85.8323C200.716 85.62 201.283 85.6214 201.783 85.8363L302.876 129.23C304.467 129.913 304.498 132.157 302.926 132.883Z" fill="white"/>
<path d="M397.468 87.4004L337.821 115.513C337.299 115.759 336.697 115.768 336.168 115.537L201.802 56.8503C201.291 56.627 200.709 56.6274 200.198 56.8514L66.3265 115.538C65.801 115.768 65.2019 115.762 64.6815 115.52L4.08027 87.3938C2.50857 86.6643 2.54492 84.4175 4.13939 83.7392L200.216 0.333424C200.717 0.120399 201.283 0.120653 201.784 0.334128L397.4 83.7515C398.988 84.4287 399.03 86.6644 397.468 87.4004Z" fill="white"/>
<path d="M401.5 85.5L391 90L389.5 147V157V176.5C386.092 176.5 383.238 179.079 382.893 182.469L374.221 267.828C374.089 269.123 374.81 270.361 376.011 270.863C390.596 276.973 400.077 277.447 416.015 273.187C417.444 272.805 418.365 271.416 418.181 269.948L407.182 181.957C406.792 178.84 404.142 176.5 401 176.5V157V147L401.5 85.5Z" fill="white"/>
</svg>
