<svg width="333" height="304" viewBox="0 0 333 304" fill="none" xmlns="http://www.w3.org/2000/svg">
<path d="M221.483 204.403C222.059 204.159 222.72 204.2 223.262 204.51C233.257 210.237 242.164 215.375 251.416 220.756C274.665 234.278 288.851 259.22 288.851 286.114V301.612C288.851 302.395 287.981 302.869 287.315 302.456C240.412 273.362 206.808 252.119 169.358 229.34C168.675 228.924 168.728 227.914 169.453 227.577C185.427 220.168 202.654 212.391 221.483 204.403ZM30.2363 101.879C30.2363 101.135 31.0251 100.654 31.6901 100.988C71.5346 120.996 104.339 137.648 135.882 154.605C136.611 154.996 136.574 156.05 135.819 156.387C129.887 159.036 123.076 161.863 117.666 164.435C106.175 169.899 95.2733 175.347 85.2119 180.808C84.9178 180.967 84.5633 180.969 84.2672 180.813C67.1825 171.815 50.8511 163.733 30.8144 154.341C30.4631 154.176 30.2363 153.822 30.2363 153.434V101.879Z" fill="url(#paint0_linear_294_3)"/>
<path d="M241.655 175.678C123.568 224.402 48.8122 260.444 34.6128 303.559V257.571C34.6128 246.442 36.5204 235.042 44.0657 226.861C79.0329 188.95 184.808 151.983 284.064 105.43V112.563C284.064 140.24 267.239 165.121 241.655 175.678Z" fill="url(#paint1_linear_294_3)"/>
<path d="M240.206 106.12L160.769 142.841C160.24 143.085 159.63 143.087 159.1 142.845L78.5392 106.124C76.9551 105.402 76.9859 103.141 78.5892 102.463L159.15 68.3645C159.652 68.1523 160.218 68.1537 160.719 68.3685L240.156 102.466C241.746 103.149 241.777 105.393 240.206 106.12Z" fill="#092B4B"/>
<path d="M315.441 69.9326L268.972 91.8346C268.45 92.0806 267.847 92.0892 267.319 91.8583L160.737 45.3073C160.226 45.084 159.645 45.0844 159.134 45.3084L52.9447 91.8594C52.4193 92.0898 51.8202 92.0833 51.2998 91.8418L4.08026 69.926C2.50856 69.1965 2.54492 66.9497 4.13939 66.2715L159.152 0.333426C159.652 0.120401 160.218 0.120653 160.719 0.334128L315.373 66.2838C316.961 66.9609 317.003 69.1966 315.441 69.9326Z" fill="#092B4B"/>
<path d="M319.473 68.0322L311.118 71.6129L309.925 116.968V124.925V140.441C307.213 140.441 304.942 142.493 304.668 145.191L297.812 212.667C297.68 213.962 298.4 215.2 299.603 215.697C310.823 220.332 318.288 220.714 330.517 217.508C331.949 217.133 332.864 215.744 332.681 214.276L323.994 144.783C323.684 142.302 321.575 140.441 319.075 140.441V124.925V116.968L319.473 68.0322Z" fill="#092B4B"/>
<defs>
<linearGradient id="paint0_linear_294_3" x1="-61.9046" y1="91.4347" x2="267.99" y2="291.393" gradientUnits="userSpaceOnUse">
<stop stop-color="#40B9EB"/>
<stop offset="1" stop-color="#0A4C6F"/>
</linearGradient>
<linearGradient id="paint1_linear_294_3" x1="418.935" y1="46.5483" x2="7.55905" y2="282.473" gradientUnits="userSpaceOnUse">
<stop stop-color="#0BAAEC"/>
<stop offset="1" stop-color="#0A4C6F"/>
</linearGradient>
</defs>
</svg>
